<mxfile host="Electron" modified="2025-01-21T03:36:39.951Z" agent="Mozilla/5.0 (Windows NT 10.0; Win64; x64) AppleWebKit/537.36 (KHTML, like Gecko) draw.io/21.5.0 Chrome/112.0.5615.204 Electron/24.5.1 Safari/537.36" etag="zKrXNAf9Ir8ou3mQKJzE" version="21.5.0" type="device">
  <diagram name="第 1 页" id="4knXB5S83GSm1kHDEQGC">
    <mxGraphModel dx="1099" dy="820" grid="1" gridSize="10" guides="1" tooltips="1" connect="1" arrows="1" fold="1" page="1" pageScale="1" pageWidth="827" pageHeight="1169" math="0" shadow="0">
      <root>
        <mxCell id="0" />
        <mxCell id="1" parent="0" />
        <mxCell id="QnhKWj-urKdLgxcFlNK7-1" value="MMX" style="rounded=0;whiteSpace=wrap;html=1;fillColor=#d5e8d4;strokeColor=#82b366;" parent="1" vertex="1">
          <mxGeometry x="60" y="720" width="60" height="40" as="geometry" />
        </mxCell>
        <mxCell id="QnhKWj-urKdLgxcFlNK7-4" value="SSE" style="rounded=0;whiteSpace=wrap;html=1;fillColor=#2492c2;fontColor=#ffffff;strokeColor=#2D7600;" parent="1" vertex="1">
          <mxGeometry x="120" y="680" width="60" height="40" as="geometry" />
        </mxCell>
        <mxCell id="QnhKWj-urKdLgxcFlNK7-5" value="SSE2" style="rounded=0;whiteSpace=wrap;html=1;fillColor=#6ec2fe;strokeColor=#ffffff;" parent="1" vertex="1">
          <mxGeometry x="180" y="640" width="60" height="40" as="geometry" />
        </mxCell>
        <mxCell id="QnhKWj-urKdLgxcFlNK7-6" value="SSE3" style="rounded=0;whiteSpace=wrap;html=1;fillColor=#05bafd;strokeColor=#ffffff;" parent="1" vertex="1">
          <mxGeometry x="240" y="600" width="60" height="40" as="geometry" />
        </mxCell>
        <mxCell id="QnhKWj-urKdLgxcFlNK7-7" value="SSSE3" style="rounded=0;whiteSpace=wrap;html=1;fillColor=#fec61e;strokeColor=#ffffff;" parent="1" vertex="1">
          <mxGeometry x="300" y="560" width="60" height="40" as="geometry" />
        </mxCell>
        <mxCell id="QnhKWj-urKdLgxcFlNK7-9" value="&lt;font color=&quot;#ffffff&quot;&gt;SSE4.1&lt;/font&gt;" style="rounded=0;whiteSpace=wrap;html=1;fillColor=#7435a0;strokeColor=#ffffff;" parent="1" vertex="1">
          <mxGeometry x="360" y="520" width="60" height="40" as="geometry" />
        </mxCell>
        <mxCell id="QnhKWj-urKdLgxcFlNK7-10" value="SSE4.2" style="rounded=0;whiteSpace=wrap;html=1;" parent="1" vertex="1">
          <mxGeometry x="420" y="480" width="60" height="40" as="geometry" />
        </mxCell>
        <mxCell id="QnhKWj-urKdLgxcFlNK7-11" value="&lt;font color=&quot;#ffffff&quot;&gt;AVX&lt;/font&gt;" style="rounded=0;whiteSpace=wrap;html=1;fillColor=#035f9f;strokeColor=#FFFFFF;" parent="1" vertex="1">
          <mxGeometry x="480" y="441" width="60" height="40" as="geometry" />
        </mxCell>
        <mxCell id="QnhKWj-urKdLgxcFlNK7-12" value="AVX2" style="rounded=0;whiteSpace=wrap;html=1;" parent="1" vertex="1">
          <mxGeometry x="540" y="400" width="60" height="40" as="geometry" />
        </mxCell>
        <mxCell id="QnhKWj-urKdLgxcFlNK7-13" value="AVX512F" style="rounded=0;whiteSpace=wrap;html=1;fillColor=#2de6fe;strokeColor=#ffffff;" parent="1" vertex="1">
          <mxGeometry x="600" y="360" width="60" height="40" as="geometry" />
        </mxCell>
        <mxCell id="QnhKWj-urKdLgxcFlNK7-14" value="AVX512&lt;br&gt;DQ/BW/VL" style="rounded=0;whiteSpace=wrap;html=1;fillColor=#09bd59;strokeColor=#ffffff;" parent="1" vertex="1">
          <mxGeometry x="660" y="320" width="60" height="40" as="geometry" />
        </mxCell>
        <mxCell id="QnhKWj-urKdLgxcFlNK7-19" value="AVX512&lt;br&gt;ER/CD" style="rounded=0;whiteSpace=wrap;html=1;fillColor=#09bd59;strokeColor=#ffffff;" parent="1" vertex="1">
          <mxGeometry x="600" y="320" width="60" height="40" as="geometry" />
        </mxCell>
        <mxCell id="QnhKWj-urKdLgxcFlNK7-22" value="PII&lt;br&gt;(Klamath, 1997)" style="text;strokeColor=none;align=center;fillColor=none;html=1;verticalAlign=middle;whiteSpace=wrap;rounded=0;" parent="1" vertex="1">
          <mxGeometry x="60" y="771" width="60" height="30" as="geometry" />
        </mxCell>
        <mxCell id="QnhKWj-urKdLgxcFlNK7-23" value="PIII&lt;br&gt;(Katmai, 1999)" style="text;strokeColor=none;align=center;fillColor=none;html=1;verticalAlign=middle;whiteSpace=wrap;rounded=0;" parent="1" vertex="1">
          <mxGeometry x="120" y="771" width="60" height="30" as="geometry" />
        </mxCell>
        <mxCell id="QnhKWj-urKdLgxcFlNK7-24" value="P4&lt;br&gt;(Willamette, 2000)" style="text;strokeColor=none;align=center;fillColor=none;html=1;verticalAlign=middle;whiteSpace=wrap;rounded=0;" parent="1" vertex="1">
          <mxGeometry x="180" y="770" width="60" height="30" as="geometry" />
        </mxCell>
        <mxCell id="QnhKWj-urKdLgxcFlNK7-25" value="P4&lt;br&gt;(Prescott, 2004)" style="text;strokeColor=none;align=center;fillColor=none;html=1;verticalAlign=middle;whiteSpace=wrap;rounded=0;" parent="1" vertex="1">
          <mxGeometry x="244" y="770" width="60" height="30" as="geometry" />
        </mxCell>
        <mxCell id="QnhKWj-urKdLgxcFlNK7-26" value="Core&lt;br&gt;(Merom, 2006)" style="text;strokeColor=none;align=center;fillColor=none;html=1;verticalAlign=middle;whiteSpace=wrap;rounded=0;" parent="1" vertex="1">
          <mxGeometry x="304" y="770" width="60" height="30" as="geometry" />
        </mxCell>
        <mxCell id="QnhKWj-urKdLgxcFlNK7-27" value="Core&lt;br&gt;(Penryn, 2007)" style="text;strokeColor=none;align=center;fillColor=none;html=1;verticalAlign=middle;whiteSpace=wrap;rounded=0;" parent="1" vertex="1">
          <mxGeometry x="360" y="770" width="60" height="30" as="geometry" />
        </mxCell>
        <mxCell id="QnhKWj-urKdLgxcFlNK7-28" value="Core&lt;br&gt;(Nehalem, 2008)" style="text;strokeColor=none;align=center;fillColor=none;html=1;verticalAlign=middle;whiteSpace=wrap;rounded=0;" parent="1" vertex="1">
          <mxGeometry x="420" y="770" width="60" height="30" as="geometry" />
        </mxCell>
        <mxCell id="QnhKWj-urKdLgxcFlNK7-29" value="Core&lt;br&gt;(Sandy&lt;br&gt;Bridge, 2010)" style="text;strokeColor=none;align=center;fillColor=none;html=1;verticalAlign=middle;whiteSpace=wrap;rounded=0;" parent="1" vertex="1">
          <mxGeometry x="480" y="778" width="60" height="30" as="geometry" />
        </mxCell>
        <mxCell id="QnhKWj-urKdLgxcFlNK7-30" value="Core&lt;br&gt;(Haswell, 2013)" style="text;strokeColor=none;align=center;fillColor=none;html=1;verticalAlign=middle;whiteSpace=wrap;rounded=0;" parent="1" vertex="1">
          <mxGeometry x="540" y="770" width="60" height="30" as="geometry" />
        </mxCell>
        <mxCell id="QnhKWj-urKdLgxcFlNK7-31" value="Xeon Phi&lt;br&gt;(Knights&lt;br&gt;Landing)" style="text;strokeColor=none;align=center;fillColor=none;html=1;verticalAlign=middle;whiteSpace=wrap;rounded=0;" parent="1" vertex="1">
          <mxGeometry x="590" y="770" width="60" height="30" as="geometry" />
        </mxCell>
        <mxCell id="QnhKWj-urKdLgxcFlNK7-32" value="Core&lt;br&gt;(Sky Lake)" style="text;strokeColor=none;align=center;fillColor=none;html=1;verticalAlign=middle;whiteSpace=wrap;rounded=0;" parent="1" vertex="1">
          <mxGeometry x="650" y="770" width="60" height="30" as="geometry" />
        </mxCell>
        <mxCell id="QnhKWj-urKdLgxcFlNK7-33" value="MMX" style="rounded=0;whiteSpace=wrap;html=1;fillColor=#d5e8d4;strokeColor=#82b366;" parent="1" vertex="1">
          <mxGeometry x="120" y="720" width="60" height="40" as="geometry" />
        </mxCell>
        <mxCell id="QnhKWj-urKdLgxcFlNK7-34" value="MMX" style="rounded=0;whiteSpace=wrap;html=1;fillColor=#d5e8d4;strokeColor=#82b366;" parent="1" vertex="1">
          <mxGeometry x="180" y="720" width="60" height="40" as="geometry" />
        </mxCell>
        <mxCell id="QnhKWj-urKdLgxcFlNK7-35" value="MMX" style="rounded=0;whiteSpace=wrap;html=1;fillColor=#d5e8d4;strokeColor=#82b366;" parent="1" vertex="1">
          <mxGeometry x="240" y="720" width="60" height="40" as="geometry" />
        </mxCell>
        <mxCell id="QnhKWj-urKdLgxcFlNK7-36" value="MMX" style="rounded=0;whiteSpace=wrap;html=1;fillColor=#d5e8d4;strokeColor=#82b366;" parent="1" vertex="1">
          <mxGeometry x="300" y="720" width="60" height="40" as="geometry" />
        </mxCell>
        <mxCell id="QnhKWj-urKdLgxcFlNK7-37" value="MMX" style="rounded=0;whiteSpace=wrap;html=1;fillColor=#d5e8d4;strokeColor=#82b366;" parent="1" vertex="1">
          <mxGeometry x="360" y="720" width="60" height="40" as="geometry" />
        </mxCell>
        <mxCell id="QnhKWj-urKdLgxcFlNK7-38" value="MMX" style="rounded=0;whiteSpace=wrap;html=1;fillColor=#d5e8d4;strokeColor=#82b366;" parent="1" vertex="1">
          <mxGeometry x="420" y="720" width="60" height="40" as="geometry" />
        </mxCell>
        <mxCell id="QnhKWj-urKdLgxcFlNK7-39" value="MMX" style="rounded=0;whiteSpace=wrap;html=1;fillColor=#d5e8d4;strokeColor=#82b366;" parent="1" vertex="1">
          <mxGeometry x="480" y="720" width="60" height="40" as="geometry" />
        </mxCell>
        <mxCell id="QnhKWj-urKdLgxcFlNK7-40" value="MMX" style="rounded=0;whiteSpace=wrap;html=1;fillColor=#d5e8d4;strokeColor=#82b366;" parent="1" vertex="1">
          <mxGeometry x="540" y="720" width="60" height="40" as="geometry" />
        </mxCell>
        <mxCell id="QnhKWj-urKdLgxcFlNK7-41" value="MMX" style="rounded=0;whiteSpace=wrap;html=1;fillColor=#87a72f;strokeColor=#ffffff;" parent="1" vertex="1">
          <mxGeometry x="600" y="720" width="60" height="40" as="geometry" />
        </mxCell>
        <mxCell id="QnhKWj-urKdLgxcFlNK7-42" value="MMX" style="rounded=0;whiteSpace=wrap;html=1;fillColor=#87a72f;strokeColor=#ffffff;" parent="1" vertex="1">
          <mxGeometry x="660" y="720" width="60" height="40" as="geometry" />
        </mxCell>
        <mxCell id="QnhKWj-urKdLgxcFlNK7-43" value="SSE" style="rounded=0;whiteSpace=wrap;html=1;fillColor=#035ca0;fontColor=#ffffff;strokeColor=#ffffff;" parent="1" vertex="1">
          <mxGeometry x="180" y="680" width="60" height="40" as="geometry" />
        </mxCell>
        <mxCell id="QnhKWj-urKdLgxcFlNK7-44" value="SSE" style="rounded=0;whiteSpace=wrap;html=1;fillColor=#035ca0;fontColor=#ffffff;strokeColor=#ffffff;" parent="1" vertex="1">
          <mxGeometry x="240" y="680" width="60" height="40" as="geometry" />
        </mxCell>
        <mxCell id="QnhKWj-urKdLgxcFlNK7-45" value="SSE" style="rounded=0;whiteSpace=wrap;html=1;fillColor=#035ca0;fontColor=#ffffff;strokeColor=#ffffff;" parent="1" vertex="1">
          <mxGeometry x="300" y="680" width="60" height="40" as="geometry" />
        </mxCell>
        <mxCell id="QnhKWj-urKdLgxcFlNK7-46" value="SSE" style="rounded=0;whiteSpace=wrap;html=1;fillColor=#035ca0;fontColor=#ffffff;strokeColor=#ffffff;" parent="1" vertex="1">
          <mxGeometry x="360" y="680" width="60" height="40" as="geometry" />
        </mxCell>
        <mxCell id="QnhKWj-urKdLgxcFlNK7-47" value="SSE" style="rounded=0;whiteSpace=wrap;html=1;fillColor=#035ca0;fontColor=#ffffff;strokeColor=#ffffff;" parent="1" vertex="1">
          <mxGeometry x="420" y="680" width="60" height="40" as="geometry" />
        </mxCell>
        <mxCell id="QnhKWj-urKdLgxcFlNK7-48" value="SSE" style="rounded=0;whiteSpace=wrap;html=1;fillColor=#035ca0;fontColor=#ffffff;strokeColor=#ffffff;" parent="1" vertex="1">
          <mxGeometry x="480" y="680" width="60" height="40" as="geometry" />
        </mxCell>
        <mxCell id="QnhKWj-urKdLgxcFlNK7-49" value="SSE" style="rounded=0;whiteSpace=wrap;html=1;fillColor=#035ca0;fontColor=#ffffff;strokeColor=#ffffff;" parent="1" vertex="1">
          <mxGeometry x="540" y="679" width="60" height="40" as="geometry" />
        </mxCell>
        <mxCell id="QnhKWj-urKdLgxcFlNK7-50" value="SSE" style="rounded=0;whiteSpace=wrap;html=1;fillColor=#035ca0;fontColor=#ffffff;strokeColor=#ffffff;" parent="1" vertex="1">
          <mxGeometry x="600" y="679" width="60" height="40" as="geometry" />
        </mxCell>
        <mxCell id="QnhKWj-urKdLgxcFlNK7-51" value="SSE" style="rounded=0;whiteSpace=wrap;html=1;fillColor=#035ca0;fontColor=#ffffff;strokeColor=#ffffff;" parent="1" vertex="1">
          <mxGeometry x="660" y="679" width="60" height="40" as="geometry" />
        </mxCell>
        <mxCell id="QnhKWj-urKdLgxcFlNK7-52" value="SSE2" style="rounded=0;whiteSpace=wrap;html=1;fillColor=#6ec2fe;strokeColor=#ffffff;" parent="1" vertex="1">
          <mxGeometry x="240" y="640" width="60" height="40" as="geometry" />
        </mxCell>
        <mxCell id="QnhKWj-urKdLgxcFlNK7-53" value="SSE2" style="rounded=0;whiteSpace=wrap;html=1;fillColor=#6ec2fe;strokeColor=#ffffff;" parent="1" vertex="1">
          <mxGeometry x="300" y="640" width="60" height="40" as="geometry" />
        </mxCell>
        <mxCell id="QnhKWj-urKdLgxcFlNK7-54" value="SSE2" style="rounded=0;whiteSpace=wrap;html=1;fillColor=#6ec2fe;strokeColor=#ffffff;" parent="1" vertex="1">
          <mxGeometry x="360" y="640" width="60" height="40" as="geometry" />
        </mxCell>
        <mxCell id="QnhKWj-urKdLgxcFlNK7-55" value="SSE2" style="rounded=0;whiteSpace=wrap;html=1;fillColor=#6ec2fe;strokeColor=#ffffff;" parent="1" vertex="1">
          <mxGeometry x="420" y="640" width="60" height="40" as="geometry" />
        </mxCell>
        <mxCell id="QnhKWj-urKdLgxcFlNK7-56" value="SSE2" style="rounded=0;whiteSpace=wrap;html=1;fillColor=#6ec2fe;strokeColor=#ffffff;" parent="1" vertex="1">
          <mxGeometry x="480" y="640" width="60" height="40" as="geometry" />
        </mxCell>
        <mxCell id="QnhKWj-urKdLgxcFlNK7-57" value="SSE2" style="rounded=0;whiteSpace=wrap;html=1;fillColor=#6ec2fe;strokeColor=#ffffff;" parent="1" vertex="1">
          <mxGeometry x="540" y="640" width="60" height="40" as="geometry" />
        </mxCell>
        <mxCell id="QnhKWj-urKdLgxcFlNK7-58" value="SSE2" style="rounded=0;whiteSpace=wrap;html=1;fillColor=#6ec2fe;strokeColor=#ffffff;" parent="1" vertex="1">
          <mxGeometry x="600" y="640" width="60" height="40" as="geometry" />
        </mxCell>
        <mxCell id="QnhKWj-urKdLgxcFlNK7-59" value="SSE2" style="rounded=0;whiteSpace=wrap;html=1;fillColor=#6ec2fe;strokeColor=#ffffff;" parent="1" vertex="1">
          <mxGeometry x="660" y="640" width="60" height="40" as="geometry" />
        </mxCell>
        <mxCell id="QnhKWj-urKdLgxcFlNK7-60" value="SSE3" style="rounded=0;whiteSpace=wrap;html=1;fillColor=#05bafd;strokeColor=#ffffff;" parent="1" vertex="1">
          <mxGeometry x="300" y="600" width="60" height="40" as="geometry" />
        </mxCell>
        <mxCell id="QnhKWj-urKdLgxcFlNK7-61" value="SSE3" style="rounded=0;whiteSpace=wrap;html=1;fillColor=#05bafd;strokeColor=#ffffff;" parent="1" vertex="1">
          <mxGeometry x="360" y="600" width="60" height="40" as="geometry" />
        </mxCell>
        <mxCell id="QnhKWj-urKdLgxcFlNK7-62" value="SSE3" style="rounded=0;whiteSpace=wrap;html=1;fillColor=#05bafd;strokeColor=#ffffff;" parent="1" vertex="1">
          <mxGeometry x="420" y="600" width="60" height="40" as="geometry" />
        </mxCell>
        <mxCell id="QnhKWj-urKdLgxcFlNK7-63" value="SSE3" style="rounded=0;whiteSpace=wrap;html=1;fillColor=#05bafd;strokeColor=#ffffff;" parent="1" vertex="1">
          <mxGeometry x="480" y="600" width="60" height="40" as="geometry" />
        </mxCell>
        <mxCell id="QnhKWj-urKdLgxcFlNK7-64" value="SSE3" style="rounded=0;whiteSpace=wrap;html=1;fillColor=#05bafd;strokeColor=#ffffff;" parent="1" vertex="1">
          <mxGeometry x="540" y="600" width="60" height="40" as="geometry" />
        </mxCell>
        <mxCell id="QnhKWj-urKdLgxcFlNK7-65" value="SSE3" style="rounded=0;whiteSpace=wrap;html=1;fillColor=#05bafd;strokeColor=#ffffff;" parent="1" vertex="1">
          <mxGeometry x="600" y="600" width="60" height="40" as="geometry" />
        </mxCell>
        <mxCell id="QnhKWj-urKdLgxcFlNK7-66" value="SSE3" style="rounded=0;whiteSpace=wrap;html=1;fillColor=#05bafd;strokeColor=#ffffff;" parent="1" vertex="1">
          <mxGeometry x="660" y="600" width="60" height="40" as="geometry" />
        </mxCell>
        <mxCell id="QnhKWj-urKdLgxcFlNK7-67" value="SSSE3" style="rounded=0;whiteSpace=wrap;html=1;fillColor=#fec61e;strokeColor=#ffffff;" parent="1" vertex="1">
          <mxGeometry x="360" y="560" width="60" height="40" as="geometry" />
        </mxCell>
        <mxCell id="QnhKWj-urKdLgxcFlNK7-68" value="SSSE3" style="rounded=0;whiteSpace=wrap;html=1;fillColor=#fec61e;strokeColor=#ffffff;" parent="1" vertex="1">
          <mxGeometry x="420" y="560" width="60" height="40" as="geometry" />
        </mxCell>
        <mxCell id="QnhKWj-urKdLgxcFlNK7-69" value="SSSE3" style="rounded=0;whiteSpace=wrap;html=1;fillColor=#fec61e;strokeColor=#ffffff;" parent="1" vertex="1">
          <mxGeometry x="480" y="560" width="60" height="40" as="geometry" />
        </mxCell>
        <mxCell id="QnhKWj-urKdLgxcFlNK7-70" value="SSSE3" style="rounded=0;whiteSpace=wrap;html=1;fillColor=#fec61e;strokeColor=#ffffff;" parent="1" vertex="1">
          <mxGeometry x="540" y="560" width="60" height="40" as="geometry" />
        </mxCell>
        <mxCell id="QnhKWj-urKdLgxcFlNK7-71" value="SSSE3" style="rounded=0;whiteSpace=wrap;html=1;fillColor=#fec61e;strokeColor=#ffffff;" parent="1" vertex="1">
          <mxGeometry x="600" y="560" width="60" height="40" as="geometry" />
        </mxCell>
        <mxCell id="QnhKWj-urKdLgxcFlNK7-72" value="SSSE3" style="rounded=0;whiteSpace=wrap;html=1;fillColor=#fec61e;strokeColor=#ffffff;" parent="1" vertex="1">
          <mxGeometry x="660" y="560" width="60" height="40" as="geometry" />
        </mxCell>
        <mxCell id="QnhKWj-urKdLgxcFlNK7-73" value="&lt;font color=&quot;#ffffff&quot;&gt;SSE4.1&lt;/font&gt;" style="rounded=0;whiteSpace=wrap;html=1;fillColor=#7435a0;strokeColor=#ffffff;" parent="1" vertex="1">
          <mxGeometry x="420" y="520" width="60" height="40" as="geometry" />
        </mxCell>
        <mxCell id="QnhKWj-urKdLgxcFlNK7-74" value="&lt;font color=&quot;#ffffff&quot;&gt;SSE4.1&lt;/font&gt;" style="rounded=0;whiteSpace=wrap;html=1;fillColor=#7435a0;strokeColor=#ffffff;" parent="1" vertex="1">
          <mxGeometry x="480" y="520" width="60" height="40" as="geometry" />
        </mxCell>
        <mxCell id="QnhKWj-urKdLgxcFlNK7-76" value="&lt;font color=&quot;#ffffff&quot;&gt;SSE4.1&lt;/font&gt;" style="rounded=0;whiteSpace=wrap;html=1;fillColor=#7435a0;strokeColor=#ffffff;" parent="1" vertex="1">
          <mxGeometry x="540" y="520" width="60" height="40" as="geometry" />
        </mxCell>
        <mxCell id="QnhKWj-urKdLgxcFlNK7-77" value="&lt;font color=&quot;#ffffff&quot;&gt;SSE4.1&lt;/font&gt;" style="rounded=0;whiteSpace=wrap;html=1;fillColor=#7435a0;strokeColor=#ffffff;" parent="1" vertex="1">
          <mxGeometry x="600" y="520" width="60" height="40" as="geometry" />
        </mxCell>
        <mxCell id="QnhKWj-urKdLgxcFlNK7-78" value="&lt;font color=&quot;#ffffff&quot;&gt;SSE4.1&lt;/font&gt;" style="rounded=0;whiteSpace=wrap;html=1;fillColor=#7435a0;strokeColor=#ffffff;" parent="1" vertex="1">
          <mxGeometry x="660" y="520" width="60" height="40" as="geometry" />
        </mxCell>
        <mxCell id="QnhKWj-urKdLgxcFlNK7-79" value="SSE4.2" style="rounded=0;whiteSpace=wrap;html=1;" parent="1" vertex="1">
          <mxGeometry x="480" y="480" width="60" height="40" as="geometry" />
        </mxCell>
        <mxCell id="QnhKWj-urKdLgxcFlNK7-80" value="SSE4.2" style="rounded=0;whiteSpace=wrap;html=1;fillColor=#6a6a6a;strokeColor=#ffffff;" parent="1" vertex="1">
          <mxGeometry x="540" y="480" width="60" height="40" as="geometry" />
        </mxCell>
        <mxCell id="QnhKWj-urKdLgxcFlNK7-81" value="SSE4.2" style="rounded=0;whiteSpace=wrap;html=1;fillColor=#6a6a6a;strokeColor=#ffffff;" parent="1" vertex="1">
          <mxGeometry x="600" y="480" width="60" height="40" as="geometry" />
        </mxCell>
        <mxCell id="QnhKWj-urKdLgxcFlNK7-82" value="SSE4.2" style="rounded=0;whiteSpace=wrap;html=1;fillColor=#6a6a6a;strokeColor=#ffffff;" parent="1" vertex="1">
          <mxGeometry x="660" y="480" width="60" height="40" as="geometry" />
        </mxCell>
        <mxCell id="QnhKWj-urKdLgxcFlNK7-83" value="&lt;font color=&quot;#ffffff&quot;&gt;AVX&lt;/font&gt;" style="rounded=0;whiteSpace=wrap;html=1;fillColor=#035f9f;strokeColor=#ffffff;" parent="1" vertex="1">
          <mxGeometry x="540" y="440" width="60" height="40" as="geometry" />
        </mxCell>
        <mxCell id="QnhKWj-urKdLgxcFlNK7-84" value="&lt;font color=&quot;#ffffff&quot;&gt;AVX&lt;/font&gt;" style="rounded=0;whiteSpace=wrap;html=1;fillColor=#035f9f;strokeColor=#ffffff;" parent="1" vertex="1">
          <mxGeometry x="600" y="440" width="60" height="40" as="geometry" />
        </mxCell>
        <mxCell id="QnhKWj-urKdLgxcFlNK7-85" value="&lt;font color=&quot;#ffffff&quot;&gt;AVX&lt;/font&gt;" style="rounded=0;whiteSpace=wrap;html=1;fillColor=#035f9f;strokeColor=#ffffff;" parent="1" vertex="1">
          <mxGeometry x="660" y="440" width="60" height="40" as="geometry" />
        </mxCell>
        <mxCell id="QnhKWj-urKdLgxcFlNK7-86" value="AVX2" style="rounded=0;whiteSpace=wrap;html=1;" parent="1" vertex="1">
          <mxGeometry x="600" y="400" width="60" height="40" as="geometry" />
        </mxCell>
        <mxCell id="QnhKWj-urKdLgxcFlNK7-87" value="AVX2" style="rounded=0;whiteSpace=wrap;html=1;fillColor=#76ccfa;strokeColor=#ffffff;" parent="1" vertex="1">
          <mxGeometry x="660" y="400" width="60" height="40" as="geometry" />
        </mxCell>
        <mxCell id="QnhKWj-urKdLgxcFlNK7-88" value="AVX512F" style="rounded=0;whiteSpace=wrap;html=1;fillColor=#2de6fe;strokeColor=#ffffff;" parent="1" vertex="1">
          <mxGeometry x="660" y="360" width="60" height="40" as="geometry" />
        </mxCell>
        <mxCell id="QnhKWj-urKdLgxcFlNK7-89" value="MMX" style="rounded=0;whiteSpace=wrap;html=1;fillColor=#87a72f;strokeColor=#ffffff;" parent="1" vertex="1">
          <mxGeometry x="60" y="720" width="60" height="40" as="geometry" />
        </mxCell>
        <mxCell id="QnhKWj-urKdLgxcFlNK7-90" value="MMX" style="rounded=0;whiteSpace=wrap;html=1;fillColor=#87a72f;strokeColor=#ffffff;" parent="1" vertex="1">
          <mxGeometry x="120" y="720" width="60" height="40" as="geometry" />
        </mxCell>
        <mxCell id="QnhKWj-urKdLgxcFlNK7-91" value="MMX" style="rounded=0;whiteSpace=wrap;html=1;fillColor=#87a72f;strokeColor=#ffffff;" parent="1" vertex="1">
          <mxGeometry x="180" y="720" width="60" height="40" as="geometry" />
        </mxCell>
        <mxCell id="QnhKWj-urKdLgxcFlNK7-92" value="MMX" style="rounded=0;whiteSpace=wrap;html=1;fillColor=#87a72f;strokeColor=#ffffff;" parent="1" vertex="1">
          <mxGeometry x="240" y="720" width="60" height="40" as="geometry" />
        </mxCell>
        <mxCell id="QnhKWj-urKdLgxcFlNK7-93" value="MMX" style="rounded=0;whiteSpace=wrap;html=1;fillColor=#87a72f;strokeColor=#ffffff;" parent="1" vertex="1">
          <mxGeometry x="300" y="720" width="60" height="40" as="geometry" />
        </mxCell>
        <mxCell id="QnhKWj-urKdLgxcFlNK7-94" value="MMX" style="rounded=0;whiteSpace=wrap;html=1;fillColor=#87a72f;strokeColor=#ffffff;" parent="1" vertex="1">
          <mxGeometry x="360" y="720" width="60" height="40" as="geometry" />
        </mxCell>
        <mxCell id="QnhKWj-urKdLgxcFlNK7-95" value="MMX" style="rounded=0;whiteSpace=wrap;html=1;fillColor=#87a72f;strokeColor=#ffffff;" parent="1" vertex="1">
          <mxGeometry x="420" y="720" width="60" height="40" as="geometry" />
        </mxCell>
        <mxCell id="QnhKWj-urKdLgxcFlNK7-96" value="MMX" style="rounded=0;whiteSpace=wrap;html=1;fillColor=#87a72f;strokeColor=#ffffff;" parent="1" vertex="1">
          <mxGeometry x="480" y="720" width="60" height="40" as="geometry" />
        </mxCell>
        <mxCell id="QnhKWj-urKdLgxcFlNK7-97" value="MMX" style="rounded=0;whiteSpace=wrap;html=1;fillColor=#87a72f;strokeColor=#ffffff;" parent="1" vertex="1">
          <mxGeometry x="540" y="720" width="60" height="40" as="geometry" />
        </mxCell>
        <mxCell id="QnhKWj-urKdLgxcFlNK7-98" value="SSE" style="rounded=0;whiteSpace=wrap;html=1;fillColor=#035ca0;fontColor=#ffffff;strokeColor=#ffffff;" parent="1" vertex="1">
          <mxGeometry x="120" y="679" width="60" height="40" as="geometry" />
        </mxCell>
        <mxCell id="QnhKWj-urKdLgxcFlNK7-99" value="SSE4.2" style="rounded=0;whiteSpace=wrap;html=1;fillColor=#6a6a6a;strokeColor=#ffffff;" parent="1" vertex="1">
          <mxGeometry x="420" y="480" width="60" height="40" as="geometry" />
        </mxCell>
        <mxCell id="QnhKWj-urKdLgxcFlNK7-100" value="SSE4.2" style="rounded=0;whiteSpace=wrap;html=1;fillColor=#6a6a6a;strokeColor=#ffffff;" parent="1" vertex="1">
          <mxGeometry x="480" y="480" width="60" height="40" as="geometry" />
        </mxCell>
        <mxCell id="QnhKWj-urKdLgxcFlNK7-101" value="AVX2" style="rounded=0;whiteSpace=wrap;html=1;fillColor=#76ccfa;strokeColor=#ffffff;" parent="1" vertex="1">
          <mxGeometry x="540" y="400" width="60" height="40" as="geometry" />
        </mxCell>
        <mxCell id="QnhKWj-urKdLgxcFlNK7-102" value="AVX2" style="rounded=0;whiteSpace=wrap;html=1;fillColor=#76ccfa;strokeColor=#ffffff;" parent="1" vertex="1">
          <mxGeometry x="600" y="400" width="60" height="40" as="geometry" />
        </mxCell>
        <mxCell id="QnhKWj-urKdLgxcFlNK7-103" value="" style="endArrow=none;dashed=1;html=1;dashPattern=1 3;strokeWidth=2;rounded=0;" parent="1" edge="1">
          <mxGeometry width="50" height="50" relative="1" as="geometry">
            <mxPoint x="120" y="720" as="sourcePoint" />
            <mxPoint x="120" y="240" as="targetPoint" />
          </mxGeometry>
        </mxCell>
        <mxCell id="QnhKWj-urKdLgxcFlNK7-104" value="" style="endArrow=none;dashed=1;html=1;dashPattern=1 3;strokeWidth=2;rounded=0;" parent="1" edge="1">
          <mxGeometry width="50" height="50" relative="1" as="geometry">
            <mxPoint x="480" y="480" as="sourcePoint" />
            <mxPoint x="480" y="240" as="targetPoint" />
          </mxGeometry>
        </mxCell>
        <mxCell id="QnhKWj-urKdLgxcFlNK7-105" value="" style="endArrow=none;dashed=1;html=1;dashPattern=1 3;strokeWidth=2;rounded=0;exitX=0;exitY=0;exitDx=0;exitDy=0;" parent="1" source="QnhKWj-urKdLgxcFlNK7-102" edge="1">
          <mxGeometry width="50" height="50" relative="1" as="geometry">
            <mxPoint x="600" y="410" as="sourcePoint" />
            <mxPoint x="600" y="240" as="targetPoint" />
          </mxGeometry>
        </mxCell>
        <mxCell id="QnhKWj-urKdLgxcFlNK7-106" value="" style="endArrow=none;dashed=1;html=1;dashPattern=1 3;strokeWidth=2;rounded=0;" parent="1" edge="1">
          <mxGeometry width="50" height="50" relative="1" as="geometry">
            <mxPoint x="719" y="320" as="sourcePoint" />
            <mxPoint x="719" y="242" as="targetPoint" />
          </mxGeometry>
        </mxCell>
        <mxCell id="QnhKWj-urKdLgxcFlNK7-107" value="&lt;font style=&quot;font-size: 17px;&quot;&gt;64b&lt;br&gt;SIMD&lt;/font&gt;" style="ellipse;whiteSpace=wrap;html=1;aspect=fixed;fillColor=#dae8fc;gradientColor=#7ea6e0;strokeColor=#6c8ebf;" parent="1" vertex="1">
          <mxGeometry x="20" y="230" width="80" height="80" as="geometry" />
        </mxCell>
        <mxCell id="QnhKWj-urKdLgxcFlNK7-108" value="&lt;font style=&quot;font-size: 17px;&quot;&gt;128b&lt;br&gt;SIMD&lt;/font&gt;" style="ellipse;whiteSpace=wrap;html=1;aspect=fixed;fillColor=#dae8fc;gradientColor=#7ea6e0;strokeColor=#6c8ebf;" parent="1" vertex="1">
          <mxGeometry x="270" y="230" width="80" height="80" as="geometry" />
        </mxCell>
        <mxCell id="QnhKWj-urKdLgxcFlNK7-109" value="&lt;font style=&quot;font-size: 17px;&quot;&gt;256b&lt;br&gt;SIMD&lt;/font&gt;" style="ellipse;whiteSpace=wrap;html=1;aspect=fixed;fillColor=#dae8fc;gradientColor=#7ea6e0;strokeColor=#6c8ebf;" parent="1" vertex="1">
          <mxGeometry x="500" y="230" width="80" height="80" as="geometry" />
        </mxCell>
        <mxCell id="QnhKWj-urKdLgxcFlNK7-110" value="&lt;font style=&quot;font-size: 17px;&quot;&gt;512b&lt;br&gt;SIMD&lt;/font&gt;" style="ellipse;whiteSpace=wrap;html=1;aspect=fixed;fillColor=#dae8fc;gradientColor=#7ea6e0;strokeColor=#6c8ebf;" parent="1" vertex="1">
          <mxGeometry x="620" y="230" width="80" height="80" as="geometry" />
        </mxCell>
        <mxCell id="QnhKWj-urKdLgxcFlNK7-111" value="&lt;font style=&quot;font-size: 17px;&quot;&gt;64b&lt;br&gt;SIMD&lt;/font&gt;" style="ellipse;whiteSpace=wrap;html=1;aspect=fixed;fillColor=#dae8fc;gradientColor=#7ea6e0;strokeColor=#6c8ebf;" parent="1" vertex="1">
          <mxGeometry x="20" y="230" width="80" height="80" as="geometry" />
        </mxCell>
        <mxCell id="5QzvcJGyVcDiPQYoqL-W-1" value="70 个指令" style="text;strokeColor=none;align=left;fillColor=none;html=1;verticalAlign=middle;whiteSpace=wrap;rounded=0;fontSize=13;" parent="1" vertex="1">
          <mxGeometry x="735" y="685" width="70" height="30" as="geometry" />
        </mxCell>
        <mxCell id="5QzvcJGyVcDiPQYoqL-W-2" value="144 个指令" style="text;strokeColor=none;align=left;fillColor=none;html=1;verticalAlign=middle;whiteSpace=wrap;rounded=0;fontSize=13;" parent="1" vertex="1">
          <mxGeometry x="735" y="645" width="70" height="30" as="geometry" />
        </mxCell>
        <mxCell id="5QzvcJGyVcDiPQYoqL-W-3" value="13 个指令" style="text;strokeColor=none;align=left;fillColor=none;html=1;verticalAlign=middle;whiteSpace=wrap;rounded=0;fontSize=13;" parent="1" vertex="1">
          <mxGeometry x="735" y="600" width="60" height="30" as="geometry" />
        </mxCell>
        <mxCell id="5QzvcJGyVcDiPQYoqL-W-4" value="16 个指令" style="text;strokeColor=none;align=left;fillColor=none;html=1;verticalAlign=middle;whiteSpace=wrap;rounded=0;fontSize=13;" parent="1" vertex="1">
          <mxGeometry x="735" y="560" width="60" height="30" as="geometry" />
        </mxCell>
        <mxCell id="5QzvcJGyVcDiPQYoqL-W-5" value="47 个指令" style="text;strokeColor=none;align=left;fillColor=none;html=1;verticalAlign=middle;whiteSpace=wrap;rounded=0;fontSize=13;" parent="1" vertex="1">
          <mxGeometry x="735" y="525" width="60" height="30" as="geometry" />
        </mxCell>
        <mxCell id="5QzvcJGyVcDiPQYoqL-W-6" value="7 个指令" style="text;strokeColor=none;align=left;fillColor=none;html=1;verticalAlign=middle;whiteSpace=wrap;rounded=0;fontSize=13;" parent="1" vertex="1">
          <mxGeometry x="735" y="485" width="60" height="30" as="geometry" />
        </mxCell>
        <mxCell id="5QzvcJGyVcDiPQYoqL-W-7" value="12 个指令" style="text;strokeColor=none;align=left;fillColor=none;html=1;verticalAlign=middle;whiteSpace=wrap;rounded=0;fontSize=13;" parent="1" vertex="1">
          <mxGeometry x="735" y="445" width="60" height="30" as="geometry" />
        </mxCell>
        <mxCell id="5QzvcJGyVcDiPQYoqL-W-8" value="31 个指令" style="text;strokeColor=none;align=left;fillColor=none;html=1;verticalAlign=middle;whiteSpace=wrap;rounded=0;fontSize=13;" parent="1" vertex="1">
          <mxGeometry x="735" y="405" width="60" height="30" as="geometry" />
        </mxCell>
        <mxCell id="5QzvcJGyVcDiPQYoqL-W-9" value="&lt;font color=&quot;#0000ff&quot;&gt;Intel SIMD 指令集进化&lt;/font&gt;" style="text;strokeColor=none;align=center;fillColor=none;html=1;verticalAlign=middle;whiteSpace=wrap;rounded=0;fontSize=21;" parent="1" vertex="1">
          <mxGeometry x="280" y="160" width="300" height="30" as="geometry" />
        </mxCell>
        <mxCell id="5QzvcJGyVcDiPQYoqL-W-10" value="57 个指令" style="text;strokeColor=none;align=left;fillColor=none;html=1;verticalAlign=middle;whiteSpace=wrap;rounded=0;fontSize=13;" parent="1" vertex="1">
          <mxGeometry x="735" y="725" width="70" height="30" as="geometry" />
        </mxCell>
      </root>
    </mxGraphModel>
  </diagram>
</mxfile>
